<?xml version="1.0" encoding="UTF-8" standalone="no"?>
<!-- Created with Inkscape (http://www.inkscape.org/) -->

<svg
   version="1.1"
   id="svg948"
   width="101.89883"
   height="101.31245"
   viewBox="0 0 101.89883 101.31245"
   sodipodi:docname="email1.svg"
   inkscape:version="1.1.1 (c3084ef, 2021-09-22)"
   xmlns:inkscape="http://www.inkscape.org/namespaces/inkscape"
   xmlns:sodipodi="http://sodipodi.sourceforge.net/DTD/sodipodi-0.dtd"
   xmlns="http://www.w3.org/2000/svg"
   xmlns:svg="http://www.w3.org/2000/svg">
  <defs
     id="defs952" />
  <sodipodi:namedview
     id="namedview950"
     pagecolor="#ffffff"
     bordercolor="#666666"
     borderopacity="1.0"
     inkscape:pageshadow="2"
     inkscape:pageopacity="0.0"
     inkscape:pagecheckerboard="0"
     showgrid="false"
     fit-margin-top="0"
     fit-margin-left="0"
     fit-margin-right="0"
     fit-margin-bottom="0"
     inkscape:zoom="3.7868852"
     inkscape:cx="51.097403"
     inkscape:cy="58.359308"
     inkscape:window-width="1306"
     inkscape:window-height="642"
     inkscape:window-x="0"
     inkscape:window-y="25"
     inkscape:window-maximized="0"
     inkscape:current-layer="g954" />
  <g
     inkscape:groupmode="layer"
     inkscape:label="Image"
     id="g954"
     transform="translate(-7.893382,-2.7654626)">
    <path
       style="fill:#f92c85;fill-opacity:1;stroke-width:1;stroke-miterlimit:4;stroke-dasharray:none;stroke:#f92c85;stroke-opacity:1"
       d="M 12.091247,102.57482 C 7.9404669,99.667514 7.4916269,95.600122 8.1289169,66.668929 c 0.32822,-14.900054 0.61173,-27.164761 0.63003,-27.254904 0.0183,-0.09014 2.8926201,-2.439161 6.3874001,-5.220041 l 6.35415,-5.056144 0.15646,-6.779959 c 0.13623,-5.903027 0.48566,-7.070978 2.70162,-9.029959 2.24219,-1.98217 3.62878,-2.25 11.64853,-2.25 h 9.10336 l 5.56286,-4.1999999 c 7.26255,-5.4832793 9.97521,-5.4832793 17.23776,0 l 5.56286,4.1999999 h 9.02427 c 7.61542,0 9.43562,0.323568 11.65913,2.07258 2.38775,1.878206 2.63486,2.714184 2.63486,8.913897 v 6.841316 l 6.500003,5.172207 6.5,5.172207 V 69.20948 99.168834 l -2.45455,2.454536 -2.45454,2.45455 H 59.560167 c -38.71016,0 -45.63605,-0.21931 -47.46892,-1.5031 z M 100.37922,99.218714 C 99.859327,98.377512 71.391557,76.085278 69.159747,74.771704 c -0.62286,-0.366593 -2.19786,0.165434 -3.5,1.182282 -4.68354,3.657385 -8.05781,3.558055 -13.4803,-0.396824 -2.01296,-1.468147 -2.7906,-1.014005 -16.46271,9.61428 -7.89248,6.135368 -15.15423,11.6575 -16.13724,12.27139 -0.98301,0.6139 -1.78729,1.457942 -1.78729,1.875642 0,0.4177 18.70156,0.759446 41.55902,0.759446 22.91164,0 41.320753,-0.385526 41.027993,-0.859206 z M 25.155467,88.274656 c 6.12521,-4.841797 13.49178,-10.639049 16.37015,-12.882784 l 5.23341,-4.079518 -10.73341,-8.298716 C 30.122247,58.449344 22.479707,52.50552 19.042207,49.805141 l -6.25,-4.909782 v 26.091282 c 0,14.350204 0.27597,26.091281 0.61326,26.091281 0.33729,0 5.62479,-3.96147 11.75,-8.803266 z M 105.79221,70.922934 c 0,-24.80882 -0.0901,-26.078521 -1.75,-24.669302 -0.9625,0.817127 -8.614943,6.781246 -17.005433,13.253598 l -15.25543,11.767913 7.75543,6.098883 c 4.26549,3.354385 11.58043,9.14304 16.25543,12.863679 4.675003,3.720637 8.837503,6.781767 9.250003,6.802507 0.4125,0.0207 0.75,-11.732034 0.75,-26.117278 z m -27.250003,-10.169251 14.25,-11.001272 V 33.615167 c 0,-11.217857 -0.36582,-16.503061 -1.2,-17.337245 -0.8821,-0.882098 -9.47302,-1.2 -32.42857,-1.2 -27.05628,0 -31.43852,0.209951 -32.8,1.571429 -1.29234,1.292343 -1.57143,4.302978 -1.57143,16.951809 v 15.380381 l 15.34106,11.909553 c 8.43758,6.550254 16.20008,12.394929 17.25,12.988166 2.37044,1.339376 2.63497,1.17528 21.15894,-13.125577 z m -24.06275,-1.961608 c -5.24476,-1.296505 -10.32031,-6.753095 -11.52187,-12.386871 -1.21814,-5.711479 0.008,-10.316197 3.93916,-14.793561 9.78805,-11.147975 28.89546,-4.177249 28.89546,10.541582 0,3.934555 -0.45171,5.13485 -2.55503,6.789321 -2.20904,1.737634 -3.52931,1.932675 -9.75,1.440343 -4.27769,-0.338556 -7.90453,-1.186858 -8.94497,-2.092192 -2.39077,-2.080311 -2.21032,-7.35785 0.36345,-10.629871 1.78271,-2.26635 2.76078,-2.63956 6.25,-2.384858 l 4.13655,0.301954 0.31,5 c 0.35767,5.769093 1.16509,6.960068 4.08934,6.031949 1.61132,-0.511415 2.10066,-1.488624 2.10066,-4.195045 0,-6.92961 -5.47878,-12.336904 -12.5,-12.336904 -15.37358,0 -17.12882,21.840995 -2.00604,24.961694 3.08599,0.636818 4.60747,3.435919 2.30513,4.240812 -0.7145,0.249788 -3.01483,0.03003 -5.11184,-0.488353 z m 7.31275,-16.321142 c 0,-3.527464 -1.56333,-4.429677 -3.8,-2.193011 -1.50749,1.507494 -1.54357,4.056433 -0.0781,5.521855 1.92977,1.92977 3.87814,0.257364 3.87814,-3.328844 z m -41,-2.435643 v -5.042632 l -3.4764,2.773885 -3.4764,2.773886 2.7264,2.232783 c 1.49952,1.228031 3.0639,2.248967 3.4764,2.268747 0.4125,0.01978 0.75,-2.233221 0.75,-5.006669 z m 81.265863,2.706456 2.76587,-2.264251 -3.26587,-2.414557 c -1.796223,-1.328006 -3.490863,-2.318635 -3.765863,-2.201397 -1.01785,0.433932 -0.60006,9.215488 0.43677,9.180418 0.58478,-0.01978 2.307873,-1.054876 3.829093,-2.300213 z M 63.792207,9.0779217 c -3.19807,-2.5015696 -6.16341,-2.5123646 -9.13922,-0.03327 l -2.36078,1.9667313 7,0.01103 7,0.01103 z"
       id="path1033" />
  </g>
</svg>
