<?xml version="1.0" encoding="UTF-8" standalone="no"?>
<!-- Created with Inkscape (http://www.inkscape.org/) -->

<svg
   width="56.620827mm"
   height="40.925251mm"
   viewBox="0 0 56.620827 40.925251"
   version="1.1"
   id="svg996"
   inkscape:version="1.1.1 (c3084ef, 2021-09-22)"
   sodipodi:docname="email.svg"
   xmlns:inkscape="http://www.inkscape.org/namespaces/inkscape"
   xmlns:sodipodi="http://sodipodi.sourceforge.net/DTD/sodipodi-0.dtd"
   xmlns="http://www.w3.org/2000/svg"
   xmlns:svg="http://www.w3.org/2000/svg">
  <sodipodi:namedview
     id="namedview998"
     pagecolor="#ffffff"
     bordercolor="#666666"
     borderopacity="1.0"
     inkscape:pageshadow="2"
     inkscape:pageopacity="0.0"
     inkscape:pagecheckerboard="0"
     inkscape:document-units="mm"
     showgrid="false"
     fit-margin-top="0"
     fit-margin-left="0"
     fit-margin-right="0"
     fit-margin-bottom="0"
     inkscape:zoom="0.41157407"
     inkscape:cx="171.29359"
     inkscape:cy="199.2351"
     inkscape:window-width="1366"
     inkscape:window-height="642"
     inkscape:window-x="0"
     inkscape:window-y="25"
     inkscape:window-maximized="1"
     inkscape:current-layer="layer1" />
  <defs
     id="defs993" />
  <g
     inkscape:label="Layer 1"
     inkscape:groupmode="layer"
     id="layer1"
     transform="translate(-55.903873,-95.844426)">
    <path
       style="fill:#fab162;fill-opacity:1;stroke-width:0.264583"
       d="m 57.313768,136.4795 c -1.204501,-0.52804 -1.409895,-1.11561 -1.409895,-4.0333 v -2.59885 l 7.38226,-7.37873 c 4.695352,-4.6931 7.512125,-7.32193 7.739061,-7.22268 0.196241,0.0858 3.154772,2.30269 6.574512,4.92636 3.419739,2.62368 6.396302,4.77101 6.614583,4.77186 0.218281,7.9e-4 3.194844,-2.14975 6.614583,-4.77911 3.41974,-2.62935 6.378272,-4.84691 6.574512,-4.9279 0.22245,-0.0918 3.136546,2.63116 7.739056,7.23147 l 7.38226,7.37873 v 2.65488 c 0,3.03127 -0.29563,3.73219 -1.66125,3.93874 -0.46876,0.0709 -12.520406,0.19134 -26.781453,0.26764 -21.782074,0.11653 -26.063365,0.0799 -26.768229,-0.22911 z m -1.409895,-22.64904 c 0,-8.22838 0.06328,-10.02867 0.346419,-9.85573 1.352342,0.82598 11.030664,8.41799 11.030664,8.65284 0,0.32181 -10.861691,11.2702 -11.180954,11.2702 -0.107871,0 -0.196129,-4.53029 -0.196129,-10.06731 z m 50.732617,4.48618 c -3.16575,-3.06786 -5.68967,-5.68511 -5.6087,-5.81612 0.17471,-0.28268 10.89159,-8.53891 11.25006,-8.66699 0.14997,-0.0536 0.24685,3.86657 0.24685,9.98803 0,5.54191 -0.0298,10.07549 -0.0662,10.07461 -0.0364,-7.9e-4 -2.65631,-2.51166 -5.82206,-5.57953 z m -33.843948,-6.12668 c -6.167986,-4.69305 -12.485171,-9.48532 -14.038189,-10.64948 -2.768931,-2.075644 -2.823929,-2.137574 -2.837074,-3.195034 -0.01029,-0.82768 0.145299,-1.22746 0.669316,-1.71979 l 0.682722,-0.64143 26.850582,-0.0699 26.850581,-0.0699 0.77711,0.77711 c 0.55966,0.55965 0.77711,1.03273 0.77711,1.69062 0,0.86438 -0.20277,1.06813 -3.77031,3.788594 -2.07367,1.58129 -8.39544,6.41812 -14.048367,10.74851 -5.652931,4.33038 -10.372759,7.87343 -10.488506,7.87343 -0.11575,0 -5.256988,-3.83977 -11.424975,-8.53281 z"
       id="path1232" />
  </g>
</svg>
