<?xml version="1.0" encoding="UTF-8" standalone="no"?>
<!-- Created with Inkscape (http://www.inkscape.org/) -->

<svg
   width="135.13766mm"
   height="132.01752mm"
   viewBox="0 0 135.13766 132.01752"
   version="1.1"
   id="svg5"
   inkscape:version="1.1.1 (c3084ef, 2021-09-22)"
   sodipodi:docname="github.svg"
   xmlns:inkscape="http://www.inkscape.org/namespaces/inkscape"
   xmlns:sodipodi="http://sodipodi.sourceforge.net/DTD/sodipodi-0.dtd"
   xmlns="http://www.w3.org/2000/svg"
   xmlns:svg="http://www.w3.org/2000/svg">
  <sodipodi:namedview
     id="namedview7"
     pagecolor="#ffffff"
     bordercolor="#666666"
     borderopacity="1.0"
     inkscape:pageshadow="2"
     inkscape:pageopacity="0.0"
     inkscape:pagecheckerboard="0"
     inkscape:document-units="mm"
     showgrid="false"
     fit-margin-top="0"
     fit-margin-left="0"
     fit-margin-right="0"
     fit-margin-bottom="0"
     inkscape:zoom="0.41157407"
     inkscape:cx="343.80203"
     inkscape:cy="432.48594"
     inkscape:window-width="1312"
     inkscape:window-height="642"
     inkscape:window-x="0"
     inkscape:window-y="25"
     inkscape:window-maximized="0"
     inkscape:current-layer="layer1" />
  <defs
     id="defs2" />
  <g
     inkscape:label="Layer 1"
     inkscape:groupmode="layer"
     id="layer1"
     transform="translate(-10.210129,-34.291226)">
    <path
       style="fill:#f92c85;fill-opacity:1;stroke-width:0.264583"
       d="m 56.619051,166.24607 c -1.28549,-0.25076 -6.78708,-2.54016 -9.88498,-4.11347 -16.25036,-8.25295 -29.08705,-23.91112 -34.10916,-41.60627 -1.74088,-6.1339 -2.40845,-11.29076 -2.41471,-18.65312 -0.005,-6.042447 0.2501,-8.735937 1.32488,-13.981357 5.00426,-24.42316 23.95854,-44.60957 48.09905,-51.225745 13.79582,-3.781017 29.57685,-3.014875 42.573389,2.066864 15.82754,6.188681 28.56188,17.796791 36.17954,32.979781 3.48079,6.93768 5.58709,13.89318 6.64955,21.95838 0.41716,3.16663 0.41433,13.082797 -0.005,16.404157 -1.32357,10.49168 -4.79195,20.05378 -10.34911,28.53182 -8.0231,12.2401 -18.90535,21.16659 -32.15856,26.37901 -4.089159,1.60825 -5.553079,1.70277 -6.816409,0.44015 l -0.85651,-0.85603 -0.16031,-11.96779 c -0.17159,-12.80941 -0.23779,-13.48001 -1.64211,-16.63348 -0.34773,-0.78084 -1.11901,-2.03216 -1.71396,-2.78069 l -1.08173,-1.36097 2.16676,-0.30327 c 6.92663,-0.96948 12.322519,-2.86792 16.978259,-5.97348 5.6619,-3.7767 9.15061,-9.63785 10.86491,-18.25339 0.56412,-2.83512 0.80768,-10.793907 0.40837,-13.344687 -0.68079,-4.34884 -2.83234,-9.17092 -5.52913,-12.39194 l -1.06244,-1.26897 0.65041,-2.23991 c 1.15474,-3.97679 0.8469,-9.55348 -0.77741,-14.08286 -0.51544,-1.43733 -0.68153,-1.64551 -1.4762,-1.85037 -2.45866,-0.63383 -9.43626,1.92343 -15.485769,5.67545 -1.50699,0.93467 -2.31363,1.28081 -2.79106,1.1977 -0.36933,-0.0643 -1.87864,-0.37132 -3.35403,-0.68226 -8.43934,-1.77867 -17.68103,-1.77867 -26.12038,0 -1.47538,0.31094 -2.99179,0.619 -3.3698,0.68457 -0.49543,0.0859 -1.21127,-0.21665 -2.56445,-1.08403 -5.39483,-3.45799 -13.03322,-6.25389 -15.84088,-5.79827 -0.85265,0.13837 -0.91374,0.22928 -1.54521,2.29956 -1.02404,3.35729 -1.28343,5.07362 -1.26315,8.3579 0.0151,2.43858 0.15042,3.48582 0.68175,5.27447 l 0.66297,2.23176 -1.01844,1.20782 c -2.6723,3.16921 -4.88991,8.13512 -5.56841,12.46938 -0.39988,2.55443 -0.15537,10.514897 0.40981,13.341937 1.35549,6.78024 3.98472,12.17395 7.65001,15.69355 2.75497,2.64545 7.19779,5.21299 11.54266,6.6706 1.88838,0.6335 6.93923,1.70453 9.31847,1.97597 l 1.51325,0.17264 -1.03037,1.30352 c -1.33854,1.69338 -2.30576,3.76538 -2.81937,6.03971 -0.40206,1.7804 -0.44025,1.83674 -1.51441,2.23456 -2.36878,0.8773 -3.60732,1.07168 -6.92278,1.08645 -3.39655,0.0151 -3.46198,0.004 -5.23019,-0.88319 -2.28985,-1.14903 -4.27007,-3.05978 -6.08281,-5.86941 -2.62572,-4.06969 -6.61464,-6.93689 -10.14487,-7.29202 -2.03104,-0.20432 -3.54525,0.23298 -3.54525,1.02386 0,0.60248 2.12582,2.75444 3.99884,4.04801 0.6383,0.44082 1.79173,1.63145 2.56319,2.64583 1.25819,1.65436 1.89222,2.82158 4.21424,7.75815 1.27296,2.7063 4.47201,5.19768 8.00915,6.23743 0.80036,0.23527 3.12208,0.56131 5.15937,0.72454 3.02634,0.24246 4.17623,0.22713 6.28385,-0.0838 l 2.57969,-0.38059 0.0652,4.64223 c 0.13107,9.3326 0.0729,9.83269 -1.24389,10.6955 -0.69633,0.45625 -2.11276,0.69187 -3.05464,0.50813 z"
       id="path39" />
    <path
       style="fill:#f92c85;fill-opacity:1;stroke-width:0.264583"
       d="m 56.619051,166.24607 c -1.28549,-0.25076 -6.78708,-2.54016 -9.88498,-4.11347 -16.25036,-8.25295 -29.08705,-23.91112 -34.10916,-41.60627 -1.74088,-6.1339 -2.40845,-11.29076 -2.41471,-18.65312 -0.005,-6.042447 0.2501,-8.735937 1.32488,-13.981357 5.00426,-24.42316 23.95854,-44.60957 48.09905,-51.225745 13.79582,-3.781017 29.57685,-3.014875 42.573389,2.066864 15.82754,6.188681 28.56188,17.796791 36.17954,32.979781 3.48079,6.93768 5.58709,13.89318 6.64955,21.95838 0.41716,3.16663 0.41433,13.082797 -0.005,16.404157 -1.32357,10.49168 -4.79195,20.05378 -10.34911,28.53182 -8.0231,12.2401 -18.90535,21.16659 -32.15856,26.37901 -4.089159,1.60825 -5.553079,1.70277 -6.816409,0.44015 l -0.85651,-0.85603 -0.16031,-11.96779 c -0.17159,-12.80941 -0.23779,-13.48001 -1.64211,-16.63348 -0.34773,-0.78084 -1.11901,-2.03216 -1.71396,-2.78069 l -1.08173,-1.36097 2.16676,-0.30327 c 6.92663,-0.96948 12.322519,-2.86792 16.978259,-5.97348 5.6619,-3.7767 9.15061,-9.63785 10.86491,-18.25339 0.56412,-2.83512 0.80768,-10.793907 0.40837,-13.344687 -0.68079,-4.34884 -2.83234,-9.17092 -5.52913,-12.39194 l -1.06244,-1.26897 0.65041,-2.23991 c 1.15474,-3.97679 0.8469,-9.55348 -0.77741,-14.08286 -0.51544,-1.43733 -0.68153,-1.64551 -1.4762,-1.85037 -2.45866,-0.63383 -9.43626,1.92343 -15.485769,5.67545 -1.50699,0.93467 -2.31363,1.28081 -2.79106,1.1977 -0.36933,-0.0643 -1.87864,-0.37132 -3.35403,-0.68226 -8.43934,-1.77867 -17.68103,-1.77867 -26.12038,0 -1.47538,0.31094 -2.99179,0.619 -3.3698,0.68457 -0.49543,0.0859 -1.21127,-0.21665 -2.56445,-1.08403 -5.39483,-3.45799 -13.03322,-6.25389 -15.84088,-5.79827 -0.85265,0.13837 -0.91374,0.22928 -1.54521,2.29956 -1.02404,3.35729 -1.28343,5.07362 -1.26315,8.3579 0.0151,2.43858 0.15042,3.48582 0.68175,5.27447 l 0.66297,2.23176 -1.01844,1.20782 c -2.6723,3.16921 -4.88991,8.13512 -5.56841,12.46938 -0.39988,2.55443 -0.15537,10.514897 0.40981,13.341937 1.35549,6.78024 3.98472,12.17395 7.65001,15.69355 2.75497,2.64545 7.19779,5.21299 11.54266,6.6706 1.88838,0.6335 6.93923,1.70453 9.31847,1.97597 l 1.51325,0.17264 -1.03037,1.30352 c -1.33854,1.69338 -2.30576,3.76538 -2.81937,6.03971 -0.40206,1.7804 -0.44025,1.83674 -1.51441,2.23456 -2.36878,0.8773 -3.60732,1.07168 -6.92278,1.08645 -3.39655,0.0151 -3.46198,0.004 -5.23019,-0.88319 -2.28985,-1.14903 -4.27007,-3.05978 -6.08281,-5.86941 -2.62572,-4.06969 -6.61464,-6.93689 -10.14487,-7.29202 -2.03104,-0.20432 -3.54525,0.23298 -3.54525,1.02386 0,0.60248 2.12582,2.75444 3.99884,4.04801 0.6383,0.44082 1.79173,1.63145 2.56319,2.64583 1.25819,1.65436 1.89222,2.82158 4.21424,7.75815 1.27296,2.7063 4.47201,5.19768 8.00915,6.23743 0.80036,0.23527 3.12208,0.56131 5.15937,0.72454 3.02634,0.24246 4.17623,0.22713 6.28385,-0.0838 l 2.57969,-0.38059 0.0652,4.64223 c 0.13107,9.3326 0.0729,9.83269 -1.24389,10.6955 -0.69633,0.45625 -2.11276,0.69187 -3.05464,0.50813 z"
       id="path1092" />
  </g>
</svg>
