<?xml version="1.0" encoding="UTF-8" standalone="no"?>
<!-- Created with Inkscape (http://www.inkscape.org/) -->

<svg
   width="129.99997mm"
   height="130.00008mm"
   viewBox="0 0 129.99997 130.00008"
   version="1.1"
   id="svg5"
   inkscape:version="1.1.1 (c3084ef, 2021-09-22)"
   sodipodi:docname="linkedin.svg"
   xmlns:inkscape="http://www.inkscape.org/namespaces/inkscape"
   xmlns:sodipodi="http://sodipodi.sourceforge.net/DTD/sodipodi-0.dtd"
   xmlns="http://www.w3.org/2000/svg"
   xmlns:svg="http://www.w3.org/2000/svg">
  <sodipodi:namedview
     id="namedview7"
     pagecolor="#ffffff"
     bordercolor="#666666"
     borderopacity="1.0"
     inkscape:pageshadow="2"
     inkscape:pageopacity="0.0"
     inkscape:pagecheckerboard="0"
     inkscape:document-units="mm"
     showgrid="false"
     fit-margin-top="0"
     fit-margin-left="0"
     fit-margin-right="0"
     fit-margin-bottom="0"
     inkscape:zoom="0.41157407"
     inkscape:cx="290.34871"
     inkscape:cy="228.39145"
     inkscape:window-width="1312"
     inkscape:window-height="642"
     inkscape:window-x="0"
     inkscape:window-y="25"
     inkscape:window-maximized="0"
     inkscape:current-layer="layer1" />
  <defs
     id="defs2" />
  <g
     inkscape:label="Layer 1"
     inkscape:groupmode="layer"
     id="layer1"
     transform="translate(-24.297971,-88.035832)">
    <path
       style="fill:#f92c85;fill-opacity:1;stroke-width:0.0825184"
       d="m 46.892124,217.98018 c -8.396939,-0.59906 -15.967793,-5.5968 -19.868238,-13.1156 -1.267865,-2.44404 -2.083726,-5.01234 -2.543204,-8.0059 -0.137526,-0.896 -0.147292,-3.30676 -0.174388,-43.04202 -0.02085,-30.61329 -0.0036,-42.41927 0.06395,-43.28964 0.663912,-8.57525 5.736814,-16.113767 13.436787,-19.967548 1.931422,-0.966663 3.911068,-1.645893 6.02878,-2.068514 2.431001,-0.485152 -0.611856,-0.454749 45.503289,-0.454749 40.58431,0 42.62077,0.0069 43.64324,0.14896 6.2289,0.865094 11.67692,3.849252 15.60094,8.545447 3.39735,4.065884 5.30396,8.866634 5.64377,14.210744 0.066,1.03709 0.0835,13.14927 0.0625,43.08163 -0.0273,39.03036 -0.0381,41.70098 -0.17262,42.62935 -0.43993,3.03691 -1.17139,5.4167 -2.44794,7.96431 -2.34315,4.67619 -6.13389,8.46848 -10.80818,10.81259 -2.54667,1.27712 -4.92622,2.00909 -7.96106,2.44887 -0.92912,0.13463 -3.57584,0.14426 -43.024482,0.1566 -23.118956,0.007 -42.461407,-0.0173 -42.983231,-0.0544 z m 17.572782,-29.1893 c -7e-6,-5.29978 -0.02469,-18.91187 -0.05493,-30.24909 l -0.05493,-20.61314 H 54.257952 44.16086 l 0.05235,30.14594 c 0.02876,16.58026 0.06669,30.19235 0.08428,30.24909 0.02536,0.0819 2.117564,0.10319 10.099731,0.10319 h 10.067763 z m 30.053807,-8.70744 c 0.02513,-16.95199 0.03793,-18.39664 0.168983,-19.04496 0.202377,-1.00105 0.424768,-1.64686 0.923689,-2.6824 1.217519,-2.52703 3.085959,-4.44224 5.248315,-5.37968 1.17909,-0.51118 2.08608,-0.69941 3.60389,-0.7479 1.53572,-0.0491 2.51617,0.0537 3.52083,0.36894 3.7506,1.17703 5.63179,4.43778 6.0602,10.5044 0.0535,0.75776 0.0848,7.45643 0.0853,18.26121 l 7.4e-4,17.06445 10.1683,-0.0209 10.16829,-0.021 v -18.77672 c 0,-19.82409 0.004,-19.58651 -0.38003,-22.355 -0.36994,-2.66654 -0.9515,-4.96538 -1.8087,-7.14936 -3.10876,-7.92069 -9.34944,-12.55167 -17.97039,-13.33517 -1.59235,-0.14473 -4.77214,-0.0603 -6.15883,0.16339 -3.46821,0.55965 -6.28836,1.77304 -8.748569,3.76419 -1.481592,1.19909 -3.26615,3.22312 -4.49543,5.09868 l -0.36873,0.56258 -0.05049,-1.34667 c -0.02773,-0.74065 -0.0556,-2.6373 -0.06188,-4.21475 l -0.01138,-2.86809 H 84.152048 73.891012 l 0.03193,22.22256 c 0.01759,12.22242 0.05456,25.8345 0.08216,30.2491 l 0.0502,8.02654 h 10.21818 10.21819 z M 56.173532,129.79982 c 1.214066,-0.21064 2.167468,-0.51547 3.227299,-1.03188 3.503711,-1.70719 5.560119,-5.00138 5.558767,-8.90464 -4.88e-4,-1.70216 -0.320364,-3.13378 -1.025373,-4.59051 -0.55062,-1.13774 -1.006698,-1.78564 -1.876476,-2.66571 -2.536352,-2.56633 -6.729584,-3.61729 -10.934429,-2.74051 -3.41668,0.71242 -6.117136,2.84017 -7.41441,5.84196 -0.519761,1.20269 -0.707804,2.11341 -0.75523,3.65774 -0.03253,1.05951 -0.01065,1.555 0.09662,2.18718 0.638435,3.76271 3.203833,6.68648 6.894382,7.85749 0.705482,0.22384 1.870894,0.45359 2.763798,0.54485 0.640076,0.0654 2.731618,-0.0288 3.46506,-0.15597 z"
       id="path39" />
  </g>
</svg>
