<?xml version="1.0" encoding="UTF-8" standalone="no"?>
<!-- Created with Inkscape (http://www.inkscape.org/) -->

<svg
   width="83.625877mm"
   height="135.19511mm"
   viewBox="0 0 83.625877 135.19511"
   version="1.1"
   id="svg5"
   inkscape:version="1.1.1 (c3084ef, 2021-09-22)"
   sodipodi:docname="mouse.svg"
   xmlns:inkscape="http://www.inkscape.org/namespaces/inkscape"
   xmlns:sodipodi="http://sodipodi.sourceforge.net/DTD/sodipodi-0.dtd"
   xmlns="http://www.w3.org/2000/svg"
   xmlns:svg="http://www.w3.org/2000/svg">
  <sodipodi:namedview
     id="namedview7"
     pagecolor="#ffffff"
     bordercolor="#666666"
     borderopacity="1.0"
     inkscape:pageshadow="2"
     inkscape:pageopacity="0.0"
     inkscape:pagecheckerboard="0"
     inkscape:document-units="mm"
     showgrid="false"
     fit-margin-top="0"
     fit-margin-left="0"
     fit-margin-right="0"
     fit-margin-bottom="0"
     inkscape:zoom="0.41157407"
     inkscape:cx="-190.73116"
     inkscape:cy="362.02475"
     inkscape:window-width="1312"
     inkscape:window-height="642"
     inkscape:window-x="0"
     inkscape:window-y="25"
     inkscape:window-maximized="0"
     inkscape:current-layer="layer1" />
  <defs
     id="defs2" />
  <g
     inkscape:label="Layer 1"
     inkscape:groupmode="layer"
     id="layer1"
     transform="translate(-28.90135,-43.010191)">
    <path
       style="fill:#ffffff;stroke-width:0.264583;fill-opacity:1"
       d="m 66.480953,178.14867 c -9.359042,-0.80869 -15.375524,-2.58648 -21.391644,-6.32094 -9.007233,-5.59117 -14.613627,-14.99067 -15.896526,-26.6516 -0.388577,-3.53199 -0.388577,-65.677414 0,-69.209397 1.283912,-11.670166 6.888306,-21.059931 15.913645,-26.662195 7.161702,-4.445456 14.683713,-6.294347 25.607858,-6.294347 5.76666,0 8.17072,0.221453 12.7,1.169873 16.39179,3.432401 26.987724,15.118442 28.821504,31.786669 0.38858,3.531983 0.38858,65.677407 0,69.209397 -1.28446,11.67518 -6.8779,21.04606 -15.913644,26.66068 -5.08277,3.15833 -10.49386,4.9894 -17.53807,5.93475 -2.25108,0.3021 -10.311808,0.54917 -12.303123,0.37711 z m 11.112503,-4.62986 c 14.79169,-1.66028 24.508914,-8.93539 28.710054,-21.49472 1.76297,-5.27036 1.7149,-4.10853 1.7149,-41.45266 0,-37.387844 0.0506,-36.174589 -1.73275,-41.506029 -2.73415,-8.173659 -7.952914,-14.221356 -15.330754,-17.765837 -4.46693,-2.146015 -10.03318,-3.548925 -15.37852,-3.875983 L 72.830953,47.2556 v 7.853719 c 0,7.243595 0.03597,7.865905 0.46302,8.010562 3.002983,1.017223 5.074283,2.758433 6.334733,5.325232 l 0.74287,1.512776 v 8.598958 8.598956 l -0.77884,1.5875 c -1.03269,2.10492 -2.85233,3.83857 -5.02024,4.78302 l -1.741543,0.75869 v 9.345857 9.34586 l -0.649433,0.64943 c -0.859192,0.8592 -2.075276,0.8592 -2.934468,0 l -0.649433,-0.64943 v -9.34586 -9.345857 l -1.741543,-0.75869 c -2.167905,-0.94445 -3.987545,-2.6781 -5.020238,-4.78302 l -0.778843,-1.5875 v -8.598956 -8.598958 l 0.742868,-1.512776 c 1.260456,-2.566799 3.331749,-4.308009 6.334736,-5.325232 0.42705,-0.144657 0.46302,-0.766967 0.46302,-8.010562 V 47.2556 l -2.745433,0.167981 c -5.345345,0.327058 -10.911593,1.729968 -15.378524,3.875983 -8.873315,4.262942 -14.984869,12.710998 -16.656158,23.02395 -0.611915,3.775919 -0.611915,68.719916 0,72.495826 1.645121,10.1515 7.688958,18.6153 16.391575,22.95481 6.950416,3.46578 17.282103,4.87858 27.384377,3.74466 z M 72.978114,89.512263 c 1.202467,-0.5706 2.210879,-1.6116 2.795312,-2.88562 0.431228,-0.94005 0.48614,-1.83553 0.4913,-8.012148 0.006,-7.568568 -0.08593,-8.15195 -1.529581,-9.673024 -2.802823,-2.953133 -7.585939,-2.0475 -9.166198,1.735524 -0.336687,0.806003 -0.40986,2.239777 -0.4051,7.9375 0.0052,6.176618 0.06007,7.072098 0.491299,8.012148 0.5745,1.25237 1.569281,2.29211 2.749915,2.87419 1.103077,0.54384 3.438779,0.54968 4.573053,0.0114 z"
       id="path39" />
  </g>
</svg>
